<svg width="1077" height="257" viewBox="0 0 1077 257" fill="none" xmlns="http://www.w3.org/2000/svg">
<path d="M98.6372 63.9754C99.5689 56.0357 100.794 51.499 106.899 42.9318C117.751 30.0115 126.045 28.6449 140.305 26.2954L140.445 26.2723C160.473 25.1449 169.986 34.9151 174.743 45.6875C179.5 56.4598 178.798 75.3739 177.372 85.5199C175.946 95.6659 170.237 122.253 137.817 148.432C146.704 151.564 147.499 151.067 158.22 152.659C168.484 141.761 174.351 133.708 189.138 116.083C203.926 98.4581 212.339 73.9961 214.674 58.965C217.008 43.9339 217.553 26.2723 205.16 13.4958C192.768 0.719369 168.359 -1.41 153.338 0.719375C138.317 2.84875 112.031 13.4958 93.7554 28.1512C75.4799 42.8065 66.9682 58.965 60.2087 80.7601C53.4492 102.555 57.3413 120.434 65.7163 142.763C79.9388 172.091 97.3854 191.99 112.531 201.761C127.678 211.531 138.317 216.792 154.966 244.599C175.494 212.157 183.59 199.931 199.402 181.469C189.138 168.943 175.87 161.848 149.833 158.296C123.797 154.744 115.414 146.346 110.529 146.145C105.644 145.945 100.014 145.895 98.2617 145.394C96.5093 144.893 96.0221 144.822 94.6316 141.761C93.1312 136.351 94.6316 128.484 94.6316 127.357C94.6316 126.229 92.2533 124.726 92.2533 123.223C92.2533 121.72 93.0535 120.827 94.7568 119.966C94.7568 119.966 90.8764 117.837 90.8764 116.083C90.8764 114.33 92.6287 107.691 92.2533 106.188C91.8779 104.685 82.9903 102.806 84.6177 99.7995C86.245 96.7933 98.9445 81.4169 100.515 78.2549C102.085 75.0929 98.8587 71.5177 98.6372 63.9754Z" fill="url(#paint0_linear_561_251)" style=""/>
<path d="M86.4954 193.744C57.5577 210.729 38.2576 220.574 14.0195 227.314L0 257C14.0195 255.998 62.0864 232.825 99.7638 205.268L86.4954 193.744Z" fill="url(#paint1_linear_561_251)" style=""/>
<path d="M267.723 128V59.8343H293.818C298.744 59.8343 302.838 60.6109 306.1 62.1642C309.384 63.6953 311.836 65.7922 313.456 68.4549C315.098 71.1176 315.919 74.1354 315.919 77.5081C315.919 80.2818 315.386 82.6561 314.321 84.6309C313.256 86.5836 311.825 88.1701 310.027 89.3905C308.23 90.6109 306.222 91.4874 304.003 92.02V92.6856C306.422 92.8188 308.74 93.5621 310.959 94.9157C313.2 96.247 315.031 98.1331 316.451 100.574C317.871 103.015 318.581 105.966 318.581 109.428C318.581 112.956 317.727 116.129 316.018 118.947C314.31 121.743 311.736 123.95 308.297 125.57C304.857 127.19 300.53 128 295.316 128H267.723ZM280.072 117.682H293.352C297.834 117.682 301.063 116.828 303.038 115.119C305.035 113.388 306.033 111.169 306.033 108.462C306.033 106.443 305.534 104.624 304.536 103.004C303.537 101.362 302.117 100.075 300.275 99.1427C298.433 98.1886 296.237 97.7115 293.685 97.7115H280.072V117.682ZM280.072 88.8247H292.287C294.417 88.8247 296.337 88.4364 298.045 87.6598C299.754 86.8609 301.096 85.7404 302.072 84.2981C303.071 82.8336 303.57 81.1028 303.57 79.1058C303.57 76.4652 302.638 74.2907 300.774 72.5821C298.933 70.8735 296.192 70.0192 292.553 70.0192H280.072V88.8247ZM332.454 128H319.273L343.271 59.8343H358.515L382.546 128H369.366L351.159 73.8136H350.627L332.454 128ZM332.887 101.273H368.833V111.192H332.887V101.273ZM441.044 82.8336H428.596C428.241 80.7922 427.586 78.9837 426.632 77.4083C425.678 75.8106 424.491 74.4571 423.071 73.3476C421.651 72.2382 420.031 71.4061 418.211 70.8513C416.414 70.2744 414.473 69.9859 412.387 69.9859C408.681 69.9859 405.397 70.9179 402.535 72.7818C399.672 74.6235 397.431 77.3306 395.811 80.9031C394.191 84.4534 393.382 88.7914 393.382 93.9172C393.382 99.1317 394.191 103.525 395.811 107.098C397.453 110.648 399.694 113.333 402.535 115.152C405.397 116.95 408.67 117.848 412.353 117.848C414.395 117.848 416.303 117.582 418.078 117.05C419.876 116.495 421.484 115.685 422.904 114.62C424.347 113.555 425.556 112.246 426.532 110.692C427.531 109.139 428.219 107.364 428.596 105.367L441.044 105.433C440.578 108.673 439.569 111.713 438.015 114.553C436.484 117.393 434.476 119.901 431.991 122.075C429.506 124.228 426.599 125.914 423.271 127.135C419.942 128.333 416.248 128.932 412.187 128.932C406.196 128.932 400.848 127.545 396.144 124.771C391.44 121.998 387.734 117.993 385.027 112.756C382.32 107.519 380.967 101.24 380.967 93.9172C380.967 86.5725 382.331 80.2929 385.061 75.0784C387.79 69.8417 391.507 65.8365 396.211 63.0629C400.915 60.2892 406.24 58.9024 412.187 58.9024C415.981 58.9024 419.51 59.4349 422.771 60.5C426.033 61.5651 428.94 63.1294 431.492 65.193C434.044 67.2345 436.14 69.7419 437.782 72.7152C439.447 75.6664 440.534 79.0392 441.044 82.8336ZM446.729 128V59.8343H459.077V91.1546H459.909L486.503 59.8343H501.581L475.22 90.4223L501.814 128H486.969L466.633 98.7766L459.077 107.697V128H446.729ZM504.536 128V59.8343H548.871V70.1857H516.885V88.6916H546.574V99.0429H516.885V117.649H549.137V128H504.536ZM611.862 59.8343V128H600.878L568.759 81.5688H568.193V128H555.845V59.8343H566.895L598.981 106.299H599.58V59.8343H611.862ZM642.792 128H619.693V59.8343H643.258C650.026 59.8343 655.84 61.199 660.699 63.9283C665.581 66.6353 669.331 70.5296 671.949 75.6109C674.568 80.6923 675.877 86.7722 675.877 93.8506C675.877 100.951 674.556 107.053 671.916 112.157C669.298 117.26 665.514 121.177 660.566 123.906C655.64 126.635 649.715 128 642.792 128ZM632.042 117.316H642.193C646.942 117.316 650.903 116.45 654.076 114.72C657.249 112.967 659.634 110.359 661.232 106.898C662.829 103.414 663.628 99.0651 663.628 93.8506C663.628 88.6361 662.829 84.3092 661.232 80.8698C659.634 77.4083 657.271 74.8232 654.142 73.1146C651.036 71.3839 647.175 70.5185 642.559 70.5185H632.042V117.316ZM267.723 203V134.834H293.286C298.522 134.834 302.916 135.744 306.466 137.564C310.038 139.383 312.734 141.935 314.554 145.219C316.396 148.481 317.317 152.286 317.317 156.635C317.317 161.007 316.385 164.801 314.521 168.018C312.679 171.214 309.961 173.688 306.366 175.441C302.771 177.172 298.356 178.037 293.119 178.037H274.913V167.785H291.455C294.517 167.785 297.024 167.364 298.977 166.521C300.93 165.655 302.372 164.402 303.304 162.76C304.258 161.095 304.735 159.054 304.735 156.635C304.735 154.217 304.258 152.153 303.304 150.445C302.35 148.714 300.896 147.405 298.944 146.517C296.991 145.607 294.473 145.152 291.388 145.152H280.072V203H267.723ZM302.938 172.112L319.813 203H306.033L289.458 172.112H302.938ZM323.059 203V134.834H367.394V145.186H335.408V163.692H365.097V174.043H335.408V192.649H367.66V203H323.059ZM374.368 203V134.834H399.93C405.167 134.834 409.56 135.811 413.111 137.763C416.683 139.716 419.379 142.401 421.199 145.818C423.04 149.213 423.961 153.074 423.961 157.401C423.961 161.772 423.04 165.655 421.199 169.05C419.357 172.445 416.639 175.119 413.044 177.072C409.449 179.002 405.023 179.967 399.764 179.967H382.822V169.816H398.1C401.162 169.816 403.669 169.283 405.622 168.218C407.574 167.153 409.017 165.689 409.949 163.825C410.903 161.961 411.38 159.82 411.38 157.401C411.38 154.982 410.903 152.852 409.949 151.01C409.017 149.169 407.563 147.737 405.588 146.717C403.636 145.674 401.117 145.152 398.033 145.152H386.716V203H374.368ZM489.973 168.917C489.973 176.262 488.597 182.553 485.846 187.789C483.117 193.004 479.389 196.998 474.662 199.771C469.958 202.545 464.622 203.932 458.653 203.932C452.684 203.932 447.336 202.545 442.61 199.771C437.906 196.976 434.178 192.97 431.427 187.756C428.697 182.519 427.333 176.24 427.333 168.917C427.333 161.572 428.697 155.293 431.427 150.078C434.178 144.842 437.906 140.837 442.61 138.063C447.336 135.289 452.684 133.902 458.653 133.902C464.622 133.902 469.958 135.289 474.662 138.063C479.389 140.837 483.117 144.842 485.846 150.078C488.597 155.293 489.973 161.572 489.973 168.917ZM477.558 168.917C477.558 163.747 476.748 159.387 475.128 155.837C473.531 152.264 471.312 149.568 468.472 147.749C465.631 145.907 462.358 144.986 458.653 144.986C454.947 144.986 451.674 145.907 448.834 147.749C445.994 149.568 443.764 152.264 442.144 155.837C440.546 159.387 439.748 163.747 439.748 168.917C439.748 174.087 440.546 178.459 442.144 182.031C443.764 185.581 445.994 188.277 448.834 190.119C451.674 191.939 454.947 192.848 458.653 192.848C462.358 192.848 465.631 191.939 468.472 190.119C471.312 188.277 473.531 185.581 475.128 182.031C476.748 178.459 477.558 174.087 477.558 168.917ZM533.069 153.573C532.758 150.666 531.449 148.403 529.141 146.783C526.856 145.163 523.883 144.354 520.221 144.354C517.647 144.354 515.44 144.742 513.598 145.518C511.756 146.295 510.347 147.349 509.371 148.68C508.394 150.012 507.895 151.532 507.873 153.24C507.873 154.661 508.195 155.892 508.838 156.935C509.504 157.978 510.403 158.865 511.534 159.598C512.666 160.308 513.92 160.907 515.295 161.395C516.671 161.883 518.058 162.294 519.456 162.626L525.846 164.224C528.42 164.823 530.894 165.633 533.269 166.654C535.665 167.675 537.806 168.962 539.692 170.515C541.601 172.068 543.11 173.943 544.219 176.14C545.329 178.337 545.883 180.911 545.883 183.862C545.883 187.856 544.863 191.373 542.821 194.413C540.78 197.43 537.829 199.794 533.968 201.502C530.129 203.189 525.48 204.032 520.022 204.032C514.718 204.032 510.114 203.211 506.209 201.569C502.326 199.927 499.286 197.53 497.089 194.379C494.914 191.229 493.738 187.39 493.561 182.863H505.709C505.887 185.237 506.619 187.212 507.906 188.788C509.193 190.363 510.868 191.539 512.932 192.316C515.018 193.092 517.348 193.481 519.922 193.481C522.607 193.481 524.959 193.081 526.978 192.283C529.019 191.462 530.617 190.33 531.771 188.888C532.925 187.423 533.513 185.714 533.535 183.762C533.513 181.987 532.991 180.522 531.971 179.368C530.95 178.192 529.519 177.216 527.677 176.439C525.857 175.641 523.727 174.93 521.286 174.309L513.531 172.312C507.917 170.87 503.479 168.684 500.218 165.755C496.978 162.804 495.358 158.888 495.358 154.006C495.358 149.99 496.445 146.473 498.62 143.455C500.817 140.437 503.801 138.096 507.573 136.432C511.346 134.746 515.617 133.902 520.388 133.902C525.225 133.902 529.463 134.746 533.102 136.432C536.763 138.096 539.637 140.415 541.723 143.388C543.809 146.339 544.885 149.734 544.951 153.573H533.069ZM563.617 134.834V203H551.268V134.834H563.617ZM568.369 145.186V134.834H622.755V145.186H601.687V203H589.438V145.186H568.369ZM685.505 168.917C685.505 176.262 684.13 182.553 681.378 187.789C678.649 193.004 674.921 196.998 670.195 199.771C665.491 202.545 660.154 203.932 654.185 203.932C648.216 203.932 642.869 202.545 638.142 199.771C633.438 196.976 629.71 192.97 626.959 187.756C624.23 182.519 622.865 176.24 622.865 168.917C622.865 161.572 624.23 155.293 626.959 150.078C629.71 144.842 633.438 140.837 638.142 138.063C642.869 135.289 648.216 133.902 654.185 133.902C660.154 133.902 665.491 135.289 670.195 138.063C674.921 140.837 678.649 144.842 681.378 150.078C684.13 155.293 685.505 161.572 685.505 168.917ZM673.091 168.917C673.091 163.747 672.281 159.387 670.661 155.837C669.063 152.264 666.844 149.568 664.004 147.749C661.164 145.907 657.891 144.986 654.185 144.986C650.48 144.986 647.207 145.907 644.366 147.749C641.526 149.568 639.296 152.264 637.676 155.837C636.079 159.387 635.28 163.747 635.28 168.917C635.28 174.087 636.079 178.459 637.676 182.031C639.296 185.581 641.526 188.277 644.366 190.119C647.207 191.939 650.48 192.848 654.185 192.848C657.891 192.848 661.164 191.939 664.004 190.119C666.844 188.277 669.063 185.581 670.661 182.031C672.281 178.459 673.091 174.087 673.091 168.917ZM691.556 203V134.834H717.118C722.355 134.834 726.748 135.744 730.299 137.564C733.871 139.383 736.567 141.935 738.387 145.219C740.228 148.481 741.149 152.286 741.149 156.635C741.149 161.007 740.217 164.801 738.353 168.018C736.512 171.214 733.794 173.688 730.199 175.441C726.604 177.172 722.189 178.037 716.952 178.037H698.745V167.785H715.288C718.35 167.785 720.857 167.364 722.81 166.521C724.763 165.655 726.205 164.402 727.137 162.76C728.091 161.095 728.568 159.054 728.568 156.635C728.568 154.217 728.091 152.153 727.137 150.445C726.183 148.714 724.729 147.405 722.777 146.517C720.824 145.607 718.305 145.152 715.221 145.152H703.905V203H691.556ZM726.771 172.112L743.646 203H729.866L713.291 172.112H726.771ZM739.578 134.834H753.524L770.199 164.99H770.865L787.54 134.834H801.486L776.69 177.571V203H764.375V177.571L739.578 134.834Z" fill="#2D6AD5" style="fill:#2D6AD5;fill:color(display-p3 0.1755 0.4169 0.8337);fill-opacity:1;"/>
<defs>
<linearGradient id="paint0_linear_561_251" x1="150.345" y1="77.1" x2="29.4447" y2="256.84" gradientUnits="userSpaceOnUse">
<stop offset="0.0205961" stop-color="#2D6AD5" style="stop-color:#2D6AD5;stop-color:color(display-p3 0.1755 0.4169 0.8337);stop-opacity:1;"/>
<stop offset="1" stop-color="#90D4ED" style="stop-color:#90D4ED;stop-color:color(display-p3 0.5647 0.8314 0.9294);stop-opacity:1;"/>
</linearGradient>
<linearGradient id="paint1_linear_561_251" x1="150.345" y1="77.1" x2="29.4447" y2="256.84" gradientUnits="userSpaceOnUse">
<stop offset="0.0205961" stop-color="#2D6AD5" style="stop-color:#2D6AD5;stop-color:color(display-p3 0.1755 0.4169 0.8337);stop-opacity:1;"/>
<stop offset="1" stop-color="#90D4ED" style="stop-color:#90D4ED;stop-color:color(display-p3 0.5647 0.8314 0.9294);stop-opacity:1;"/>
</linearGradient>
</defs>
</svg>
