<svg width="28" height="34" viewBox="0 0 28 34" fill="none" xmlns="http://www.w3.org/2000/svg">
<path d="M12.7863 8.46367C12.9071 7.41329 13.0659 6.8131 13.8572 5.67969C15.2641 3.9704 16.3392 3.7896 18.1877 3.47877L18.2059 3.47571C20.8021 3.32657 22.0353 4.61912 22.6519 6.04425C23.2685 7.46938 23.1775 9.97165 22.9926 11.3139C22.8078 12.6562 22.0678 16.1736 17.8651 19.637C19.0172 20.0512 19.1202 19.9855 20.51 20.1961C21.8406 18.7544 22.601 17.689 24.5179 15.3573C26.4348 13.0256 27.5254 9.78936 27.8281 7.80082C28.1307 5.81227 28.2013 3.47571 26.5949 1.78544C24.9885 0.0951694 21.8243 -0.186536 19.8772 0.0951703C17.93 0.376877 14.5225 1.78544 12.1535 3.72428C9.78443 5.66312 8.68106 7.80082 7.80483 10.6842C6.9286 13.5676 7.43313 15.9329 8.51879 18.887C10.3624 22.7669 12.624 25.3995 14.5874 26.6921C16.5508 27.9846 17.93 28.6806 20.0881 32.3594C22.7492 28.0675 23.7987 26.45 25.8485 24.0075C24.5179 22.3504 22.7979 21.4117 19.4228 20.9418C16.0478 20.4719 14.9611 19.3609 14.3278 19.3344C13.6946 19.3079 12.9648 19.3013 12.7376 19.235C12.5105 19.1687 12.4473 19.1593 12.2671 18.7544C12.0726 18.0386 12.2671 16.9979 12.2671 16.8487C12.2671 16.6996 11.9588 16.5007 11.9588 16.3019C11.9588 16.103 12.0625 15.9849 12.2833 15.871C12.2833 15.871 11.7803 15.5893 11.7803 15.3573C11.7803 15.1253 12.0074 14.247 11.9588 14.0482C11.9101 13.8493 10.758 13.6008 10.969 13.203C11.1799 12.8053 12.8261 10.7711 13.0297 10.3528C13.2332 9.93447 12.815 9.46149 12.7863 8.46367Z" fill="#F8F8F8"/>
<path d="M11.2124 25.6315C7.46118 27.8785 4.95932 29.181 1.81734 30.0726L0 34C1.81734 33.8674 8.04824 30.8017 12.9323 27.1561L11.2124 25.6315Z" fill="#F8F8F8"/>
</svg>
