<svg width="205" height="244" viewBox="0 0 205 244" fill="none" xmlns="http://www.w3.org/2000/svg">
<path d="M93.5933 60.6627C94.4774 53.1342 95.64 48.8324 101.432 40.7088C111.73 28.4575 119.6 27.1617 133.13 24.9338L133.264 24.9119C152.267 23.8429 161.294 33.1072 165.807 43.3217C170.321 53.5362 169.655 71.471 168.302 81.0916C166.949 90.7123 161.532 115.923 130.769 140.746C139.202 143.716 139.956 143.244 150.129 144.754C159.869 134.421 165.435 126.785 179.466 110.072C193.498 93.3598 201.481 70.1645 203.696 55.9117C205.911 41.659 206.428 24.9119 194.669 12.797C182.911 0.682119 159.75 -1.33698 145.497 0.682125C131.244 2.70124 106.302 12.797 88.9611 26.6935C71.6202 40.59 63.5437 55.9117 57.1299 76.5783C50.716 97.2448 54.4091 114.198 62.3559 135.371C75.851 163.18 92.4055 182.049 106.777 191.313C121.149 200.578 131.244 205.566 147.041 231.934C166.52 201.171 174.202 189.578 189.206 172.072C179.466 160.195 166.876 153.467 142.172 150.099C117.467 146.731 109.512 138.768 104.877 138.578C100.242 138.388 94.8999 138.34 93.237 137.865C91.5742 137.39 91.1119 137.323 89.7925 134.421C88.3689 129.29 89.7925 121.831 89.7925 120.762C89.7925 119.693 87.5358 118.268 87.5358 116.842C87.5358 115.417 88.2952 114.571 89.9113 113.754C89.9113 113.754 86.2293 111.735 86.2293 110.072C86.2293 108.41 87.892 102.115 87.5358 100.689C87.1796 99.264 78.7465 97.4824 80.2907 94.6318C81.8348 91.7812 93.8849 77.2011 95.3749 74.2028C96.8648 71.2045 93.8035 67.8145 93.5933 60.6627Z" fill="#B185E5"/>
<path d="M82.0724 183.712C54.6144 199.817 36.3013 209.153 13.3026 215.543L0 243.692C13.3026 242.742 58.9116 220.769 94.6623 194.639L82.0724 183.712Z" fill="#B185E5"/>
</svg>
